<svg width="48" height="48" viewBox="0 0 48 48" fill="none" xmlns="http://www.w3.org/2000/svg">
<rect width="48" height="48" rx="8" fill="#3498db"/>
<path d="M24 10C18.4772 10 14 14.4772 14 20C14 23.944 16.2026 27.378 19.5 29.3846V36C19.5 37.1046 20.3954 38 21.5 38H26.5C27.6046 38 28.5 37.1046 28.5 36V29.3846C31.7974 27.378 34 23.944 34 20C34 14.4772 29.5228 10 24 10ZM24 14C27.3137 14 30 16.6863 30 20C30 21.935 28.9795 23.629 27.4142 24.7071L27 25V36H21V25L20.5858 24.7071C19.0205 23.629 18 21.935 18 20C18 16.6863 20.6863 14 24 14Z" fill="white"/>
<path d="M21 18H27V22H21V18Z" fill="white"/>
</svg>
